<?xml version="1.0" encoding="UTF-8" standalone="no"?>
<!DOCTYPE svg PUBLIC "-//W3C//DTD SVG 1.1//EN" "http://www.w3.org/Graphics/SVG/1.1/DTD/svg11.dtd">
<svg width="101" height="20" viewBox="0 0 101 20" version="1.1" xmlns="http://www.w3.org/2000/svg" xmlns:xlink="http://www.w3.org/1999/xlink" xml:space="preserve" xmlns:serif="http://www.serif.com/" style="fill-rule:evenodd;clip-rule:evenodd;">
    <g transform="matrix(1.60537,0,0,1.66839,-75.7365,6.3855)">
        <g transform="matrix(12,0,0,12,109.744,6.6618)">
        </g>
        <text x="60.7px" y="6.662px" style="font-family:'AvantGardeLT-Bold', 'AvantGarde LT Medium';font-weight:700;font-size:12px;fill:white;">FXcores</text>
    </g>
    <g transform="matrix(0.301587,0,0,0.301587,0.349206,0.349206)">
        <path d="M63.5,4.042L63.5,59.958C63.5,61.913 61.913,63.5 59.958,63.5L4.042,63.5C2.087,63.5 0.5,61.913 0.5,59.958L0.5,4.042C0.5,2.087 2.087,0.5 4.042,0.5L59.958,0.5C61.913,0.5 63.5,2.087 63.5,4.042Z" style="fill:url(#_Linear1);stroke:rgb(9,9,11);stroke-opacity:0.2;stroke-width:1px;"/>
        <path d="M0.5,41.577L0.5,56.295L24.396,34.643C24.396,34.643 30.278,40.14 34.633,44.209C37.184,46.592 41.172,46.495 43.604,43.991C50.595,36.791 63.5,23.5 63.5,23.5L63.5,7.842L38.822,33.254C38.822,33.254 32.98,27.766 28.759,23.799C26.354,21.54 22.616,21.507 20.173,23.725C13.261,29.997 0.5,41.577 0.5,41.577Z"/>
    </g>
    <defs>
        <linearGradient id="_Linear1" x1="0" y1="0" x2="1" y2="0" gradientUnits="userSpaceOnUse" gradientTransform="matrix(56,-56,56,56,4,60)"><stop offset="0" style="stop-color:rgb(181,181,181);stop-opacity:1"/><stop offset="1" style="stop-color:white;stop-opacity:1"/></linearGradient>
    </defs>
</svg>
